HIERARCHY
ROOT Hips
{
  OFFSET 0 0 0
  CHANNELS 6 Xposition Yposition Zposition Zrotation Yrotation Xrotation
  JOINT LeftThigh
  {
    OFFSET 8.409438 0 -5.917753
    CHANNELS 3 Zrotation Yrotation Xrotation
    JOINT LeftLeg
    {
      OFFSET 0 0 -42.358652
      CHANNELS 3 Zrotation Yrotation Xrotation
      JOINT LeftFoot
      {
        OFFSET 0 0 -39.357303
        CHANNELS 3 Zrotation Yrotation Xrotation
      }
    }
  }
  JOINT RightThigh
  {
    OFFSET -8.409438 0 -5.917753
    CHANNELS 3 Zrotation Yrotation Xrotation
    JOINT RightLeg
    {
      OFFSET 0 0 -42.358652
      CHANNELS 3 Zrotation Yrotation Xrotation
      JOINT RightFoot
      {
        OFFSET 0 0 -39.357303
        CHANNELS 3 Zrotation Yrotation Xrotation
      }
    }
  }
  JOINT SpineLow
  {
    OFFSET 0 0 4.719101
    CHANNELS 3 Zrotation Yrotation Xrotation
    JOINT SpineMid
    {
      OFFSET 0 0 12.899191
      CHANNELS 3 Zrotation Yrotation Xrotation
      JOINT Chest
      {
        OFFSET 0 0 12.899191
        CHANNELS 3 Zrotation Yrotation Xrotation
        JOINT LeftShoulder
        {
          OFFSET 7.550562 1.41573 9.438202
          CHANNELS 3 Zrotation Yrotation Xrotation
          JOINT LeftArm
          {
            OFFSET 9.155056 0 4.247191
            CHANNELS 3 Zrotation Yrotation Xrotation
            JOINT LeftForearm
            {
              OFFSET 0 0 25.771955
              CHANNELS 3 Zrotation Yrotation Xrotation
              JOINT LeftHand
              {
                OFFSET 0 0 25.197169
                CHANNELS 3 Zrotation Yrotation Xrotation
              }
            }
          }
        }
        JOINT RightShoulder
        {
          OFFSET -7.550562 1.41573 9.438202
          CHANNELS 3 Zrotation Yrotation Xrotation
          JOINT RightArm
          {
            OFFSET -9.155056 0 4.247191
            CHANNELS 3 Zrotation Yrotation Xrotation
            JOINT RightForearm
            {
              OFFSET 0 0 -25.771955
              CHANNELS 3 Zrotation Yrotation Xrotation
              JOINT RightHand
              {
                OFFSET 0 0 -25.197169
                CHANNELS 3 Zrotation Yrotation Xrotation
              }
            }
          }
        }
        JOINT Neck
        {
          OFFSET 0 0 15.101124
          CHANNELS 3 Zrotation Yrotation Xrotation
          JOINT Head
          {
            OFFSET 0 0 11.325843
            CHANNELS 3 Zrotation Yrotation Xrotation
            End Site
            {
              OFFSET 0 0 14.157303
            }
          }
        }
      }
    }
  }
}
MOTION
Frames: 17
Frame Time: 0.0
0.0  93.25843  0.0  -1.952394  -21.038461  -87.639353  15.847635  -12.548199  3.656127  2.568199  -3.828866  4.32525  8.23029  1.455953  2.810952  -4.154115  3.439513  -10.010734  -2.48346  3.091251  2.976988  5.304414  1.090355  0.819981  1.28202  -1.710165  -0.657365  3.555909  -4.637747  -1.889887  3.555909  -4.637747  -1.889887  -30.482513  32.591121  -14.652494  137.358878  53.451984  -143.093725  -22.277757  6.278635  99.34043  74.258703  -12.118217  -1.121353  -3.001707  -0.751332  28.344044  65.1327  40.902919  12.131367  7.228091  -19.881564  -125.234231  52.60308  9.430394  -19.854195  -3.862307  9.474808  10.49563  -3.055215  7.04275  7.914374  
0.0  93.25843  0.0  -1.930063  -21.113275  -87.625199  15.372593  -12.568958  3.496523  2.779741  -3.718662  4.60894  8.305124  1.489291  2.897741  -4.350823  3.329843  -10.171791  -2.44025  3.259616  3.169649  5.548876  1.113572  0.846728  1.296272  -1.713192  -0.647086  3.594304  -4.64616  -1.862928  3.594304  -4.64616  -1.862928  -30.575821  32.553843  -14.710242  137.170494  53.272321  -143.104263  -21.610414  5.876077  99.617099  74.601242  -12.176022  -1.364337  -3.525438  -0.707892  28.045888  65.618156  40.98763  12.208579  6.532676  -20.156459  -125.335239  51.838956  8.657956  -20.072908  -3.901522  9.485726  10.523413  -3.085186  7.050114  7.935815  
0.0  93.25843  0.0  -1.914425  -21.356658  -87.704788  15.35433  -12.615704  3.582685  2.825784  -3.601307  4.791253  8.313434  1.520924  2.905053  -4.446263  3.221739  -10.218587  -2.228988  3.458327  3.403012  5.563492  1.153256  0.80337  1.322537  -1.712095  -0.623842  3.664536  -4.643695  -1.801095  3.664535  -4.643695  -1.801095  -30.724572  32.420026  -14.761543  137.22054  53.152298  -143.053216  -21.202783  5.459405  99.720454  74.545388  -12.462257  -1.028376  -3.598944  -0.790392  27.978841  66.279572  41.038255  12.49152  6.188631  -20.360421  -125.266603  51.655285  8.572247  -20.067059  -3.912635  9.490628  10.558378  -3.094139  7.053396  7.962169  
0.0  93.25843  0.0  -1.951771  -21.464082  -87.728632  14.672891  -12.791721  3.375867  3.168849  -3.399609  5.208817  8.416303  1.560814  3.009211  -4.929313  3.022141  -10.359053  -1.947415  3.640564  3.662717  5.765584  1.193498  0.795672  1.362515  -1.720693  -0.584281  3.771465  -4.668332  -1.69615  3.771465  -4.668332  -1.69615  -30.940943  32.289789  -14.951132  136.892995  53.000262  -143.12337  -21.138764  5.308247  100.083434  74.533821  -12.45974  -0.20213  -3.902938  -0.820101  27.684287  66.883119  41.130406  12.691731  5.970329  -20.643042  -125.199947  51.541647  8.445678  -20.063294  -3.990735  9.471227  10.5403  -3.151998  7.037616  7.949824  
0.0  93.25843  0.0  -1.93925  -21.648013  -87.824143  14.500121  -12.948858  3.41374  3.317661  -3.159689  5.555429  8.421248  1.593138  3.013935  -5.323648  2.852225  -10.423879  -1.526656  3.901983  3.972122  5.796536  1.219408  0.738081  1.402606  -1.720823  -0.54852  3.878697  -4.669729  -1.601122  3.878697  -4.669729  -1.601123  -31.226077  32.126169  -15.065221  136.769731  52.932724  -143.167529  -21.325686  5.20971  100.354633  74.43485  -12.588751  0.906247  -3.972391  -0.848639  27.620535  67.5686  41.325138  12.9159  5.594025  -20.983048  -125.153816  51.411478  8.348481  -19.997044  -4.060573  9.475227  10.537915  -3.204301  7.039443  7.949155  
0.0  93.25843  0.0  -2.017547  -21.47025  -87.791029  13.471396  -13.255613  3.05919  3.529916  -2.876724  6.014467  8.600637  1.645689  3.188374  -6.449773  2.480734  -10.668609  -1.266223  4.202178  4.250526  6.315774  1.268939  0.775107  1.391984  -1.726639  -0.532605  3.84867  -4.686821  -1.557175  3.848671  -4.686821  -1.557175  -31.099876  32.060712  -14.996152  136.704192  52.836857  -143.26239  -21.230255  5.429256  100.885811  74.339996  -12.77451  1.914351  -4.240919  -0.894933  27.391589  68.357303  41.515875  13.184676  5.516436  -21.43185  -125.219313  51.234294  8.286474  -19.898424  -4.077434  9.428724  10.557732  -3.216482  7.00414  7.964113  
0.0  93.25843  0.0  -2.013226  -21.541671  -87.909581  13.161506  -13.506821  3.021849  3.718098  -2.54985  6.57604  8.599357  1.693557  3.210974  -7.090725  2.286826  -10.739479  -0.770367  4.505558  4.662434  6.357059  1.31032  0.702619  1.435596  -1.72041  -0.50019  3.96559  -4.670686  -1.471166  3.96559  -4.670686  -1.471166  -31.453099  31.880835  -15.050251  136.571885  52.806437  -143.304071  -21.278387  5.23383  100.976013  74.148416  -13.185151  2.549555  -4.324265  -0.963914  27.396881  69.108679  41.753003  13.455767  5.270503  -21.877944  -125.383511  51.046882  8.269822  -19.759186  -4.188058  9.402439  10.56364  -3.298958  6.982494  7.970194  
0.0  93.25843  0.0  -2.129223  -21.340056  -87.94785  12.197965  -13.894721  2.678992  3.286456  -2.257107  6.784127  9.243622  1.800826  3.788862  -8.076596  1.951498  -10.897324  -1.376262  4.777554  4.837367  7.058969  1.421154  0.77111  1.390839  -1.735136  -0.498164  3.843336  -4.712082  -1.463357  3.843336  -4.712082  -1.463358  -30.989956  31.959863  -14.832493  136.217886  52.747092  -143.458284  -21.165756  4.882985  101.067911  73.671614  -13.62064  2.838944  -4.432106  -0.978898  27.310806  69.832625  41.957331  13.628541  5.536396  -22.414694  -125.636742  50.881542  8.269823  -19.650743  -4.015431  9.371771  10.687296  -3.171177  6.961674  8.059931  
0.0  93.25843  0.0  -2.124948  -21.260389  -88.085778  11.781241  -14.180662  2.481121  3.414129  -1.852675  7.660219  9.233347  1.840912  3.81388  -8.687754  1.772729  -10.997648  -0.871627  5.122582  5.421683  7.066127  1.48758  0.708769  1.411141  -1.723007  -0.461266  3.89597  -4.680661  -1.363086  3.895971  -4.680661  -1.363086  -31.241161  31.764875  -14.928654  136.105987  52.652638  -143.480553  -21.111698  4.555349  101.17576  73.447779  -13.79209  2.743164  -4.378594  -1.048556  27.337535  70.57538  42.16614  13.814166  5.288052  -22.831154  -125.875511  50.731885  8.334814  -19.623921  -4.108837  9.307925  10.65844  -3.239599  6.912334  8.039604  
0.0  93.25843  0.0  -2.222305  -20.913542  -88.145224  10.900735  -14.663326  1.950593  2.610141  -1.439289  8.095339  9.964182  1.991273  4.458314  -9.505837  1.484439  -11.123449  -1.513643  5.471567  5.698858  7.575451  1.569874  0.79114  1.376839  -1.736392  -0.446949  3.801401  -4.718804  -1.322281  3.801401  -4.718804  -1.322281  -30.327458  32.020667  -14.596244  134.926932  52.445194  -143.728395  -21.237911  4.361605  101.208444  73.368254  -13.814003  2.682867  -4.218964  -0.998501  27.444125  71.098835  42.433221  13.781411  5.17487  -23.220027  -126.127587  50.600751  8.430551  -19.62201  -4.015239  9.265356  10.724279  -3.169854  6.881603  8.087298  
0.0  93.25843  0.0  -2.194749  -20.560818  -88.261511  10.538499  -15.00163  1.522055  2.402361  -0.877476  9.233465  9.985994  2.03266  4.468827  -10.209618  1.339379  -11.217842  -0.889679  5.838907  6.379684  7.53125  1.626092  0.759176  1.360082  -1.732729  -0.440864  3.755002  -4.709497  -1.304217  3.755002  -4.709497  -1.304217  -30.290803  32.020344  -14.513944  134.803028  52.137476  -143.578159  -21.332618  4.283099  101.295238  73.539424  -13.672617  2.478451  -3.899934  -0.910148  27.774078  71.621637  42.738373  13.723249  4.730658  -23.514885  -126.367009  50.534678  8.568012  -19.616809  -4.088179  9.244492  10.753456  -3.224566  6.864502  8.1102  
0.0  93.25843  0.0  -2.239089  -20.031061  -88.399702  10.007253  -15.558031  1.018617  1.919514  -0.255743  10.290633  10.080815  2.104048  4.574458  -11.141493  1.112052  -11.315591  -0.407468  6.235366  7.101068  7.605117  1.691777  0.72255  1.322584  -1.748838  -0.45165  3.653529  -4.753691  -1.331994  3.653529  -4.753691  -1.331994  -28.968246  32.656628  -13.847145  133.380225  51.714648  -143.755966  -21.276186  3.992596  101.344626  73.607248  -13.580912  2.118241  -4.133639  -0.674408  27.859327  72.882248  42.821668  14.02988  4.267199  -23.780672  -126.635635  50.479509  8.708275  -19.647759  -4.099563  9.25056  10.892278  -3.235338  6.867994  8.214288  
0.0  93.25843  0.0  -2.206286  -19.273639  -88.596943  9.370996  -16.009392  0.490794  1.681863  0.423931  11.634607  10.098208  2.19373  4.618118  -12.12365  1.007109  -11.335037  0.177272  6.604969  7.899635  7.591223  1.755209  0.64844  1.286441  -1.740373  -0.473077  3.555897  -4.730163  -1.387565  3.555897  -4.730163  -1.387565  -28.821514  32.888733  -13.483591  133.477072  51.10689  -143.392872  -21.034141  3.542942  101.430075  73.661547  -13.515245  1.676496  -3.824006  -0.455582  28.512936  73.315111  43.269511  13.787838  3.629469  -24.003426  -126.928259  50.403331  8.862891  -19.679003  -4.29209  9.211137  11.044555  -3.381162  6.834028  8.331101  
0.0  93.25843  0.0  -2.209794  -18.364766  -88.84656  8.93059  -16.518577  0.072101  1.460623  1.097062  13.052822  9.76502  2.292243  4.423769  -13.226744  0.891986  -11.23597  1.063244  7.028128  8.749354  7.282567  1.823484  0.506083  1.245159  -1.740234  -0.498573  3.444703  -4.729353  -1.454386  3.444703  -4.729353  -1.454386  -28.521602  33.242006  -12.991761  133.745978  50.327272  -142.877099  -20.670947  3.11525  101.525074  73.760695  -13.523679  1.336137  -3.580329  -0.175693  29.158403  73.67451  43.760407  13.499078  3.207556  -24.258852  -127.339785  50.23298  9.041163  -19.71151  -4.467406  9.168924  11.284259  -3.515386  6.79759  8.513054  
0.0  93.25843  0.0  -2.202022  -17.063188  -89.057649  8.072823  -16.936467  -0.594363  1.044295  1.745334  14.416301  9.700139  2.38552  4.456784  -14.561826  0.864268  -11.124755  1.338422  7.375472  9.395413  7.267106  1.911333  0.466559  1.177828  -1.723308  -0.55578  3.263976  -4.681801  -1.605267  3.263976  -4.6818  -1.605267  -28.1755  33.59625  -12.329426  134.222133  49.396268  -142.253331  -20.270808  2.79752  101.628825  73.76952  -13.533594  1.096736  -3.338155  -0.057583  29.844706  74.026444  44.241379  13.336424  2.961527  -24.39887  -127.886745  50.007999  9.328549  -19.629011  -4.791569  9.091975  11.571417  -3.761144  6.73183  8.732648  
0.0  93.25843  0.0  -2.369474  -16.871545  -89.792901  8.398804  -17.552374  -0.770561  0.544439  2.401044  15.776266  9.752028  2.44895  4.572298  -14.541367  0.904875  -10.354956  1.734281  7.600747  10.065302  6.466843  1.98791  0.26231  1.325038  -1.740521  -0.517125  3.664707  -4.72726  -1.510877  3.664706  -4.72726  -1.510877  -27.898076  34.005087  -11.677322  134.616527  48.280823  -141.685065  -19.956529  2.433488  101.762341  73.498496  -13.420442  0.93762  -3.195686  -0.036517  30.469288  74.282664  44.792056  13.213103  2.493467  -24.288744  -128.329765  49.551371  9.615415  -19.516607  -5.053052  8.939109  11.992504  -3.960566  6.60896  9.051153  
0.0  93.25843  0.0  -2.472851  -15.105769  -89.981021  7.70041  -18.076604  -1.5552  -0.09995  3.102581  17.021426  9.674208  2.463101  4.576421  -15.780754  0.982692  -10.082136  1.718076  7.771009  10.486651  6.46896  2.019563  0.309783  1.26371  -1.734259  -0.617586  3.503779  -4.706247  -1.781092  3.503779  -4.706247  -1.781091  -27.255078  34.510905  -10.797195  134.667905  46.924015  -141.246922  -19.883795  1.895059  101.673633  73.041297  -13.243885  0.871883  -2.802679  -0.187748  31.342611  74.216228  45.508671  13.066971  1.84754  -23.980065  -128.642931  49.316878  9.982084  -19.198522  -5.564577  8.853144  12.397467  -4.348087  6.53106  9.361536  
